<svg xmlns="http://www.w3.org/2000/svg" xmlns:xlink="http://www.w3.org/1999/xlink" width="100" zoomAndPan="magnify" viewBox="0 0 75 30.000001" height="40" preserveAspectRatio="xMidYMid meet" version="1.2"><defs><clipPath id="877f3970a0"><path d="M 2.144531 3.316406 L 72.550781 3.316406 L 72.550781 25.621094 L 2.144531 25.621094 Z M 2.144531 3.316406 "/></clipPath><clipPath id="98c149df04"><path d="M 61.398438 3.316406 C 67.554688 3.316406 72.550781 8.308594 72.550781 14.46875 C 72.550781 20.628906 67.554688 25.621094 61.398438 25.621094 L 13.296875 25.621094 C 7.140625 25.621094 2.144531 20.628906 2.144531 14.46875 C 2.144531 8.308594 7.140625 3.316406 13.296875 3.316406 Z M 61.398438 3.316406 "/></clipPath><clipPath id="dddb48723f"><path d="M 35.335938 3.316406 L 72.875 3.316406 L 72.875 25.714844 L 35.335938 25.714844 Z M 35.335938 3.316406 "/></clipPath><clipPath id="a9bf0e6320"><path d="M 61.652344 3.316406 C 67.839844 3.316406 72.855469 8.332031 72.855469 14.515625 C 72.855469 20.703125 67.839844 25.714844 61.652344 25.714844 L 46.535156 25.714844 C 40.347656 25.714844 35.335938 20.703125 35.335938 14.515625 C 35.335938 8.332031 40.347656 3.316406 46.535156 3.316406 Z M 61.652344 3.316406 "/></clipPath><clipPath id="1cc599b88f"><path d="M 2.441406 3.410156 L 72.84375 3.410156 L 72.84375 25.714844 L 2.441406 25.714844 Z M 2.441406 3.410156 "/></clipPath><clipPath id="a60922d544"><path d="M 13.59375 25.714844 C 7.433594 25.714844 2.441406 20.71875 2.441406 14.5625 C 2.441406 8.402344 7.433594 3.410156 13.59375 3.410156 L 61.691406 3.410156 C 67.851562 3.410156 72.84375 8.402344 72.84375 14.5625 C 72.84375 20.71875 67.851562 25.714844 61.691406 25.714844 Z M 13.59375 25.714844 "/></clipPath></defs><g id="c9f3b2dd1c"><g clip-rule="nonzero" clip-path="url(#877f3970a0)"><g clip-rule="nonzero" clip-path="url(#98c149df04)"><path style="fill:none;stroke-width:0.2;stroke-linecap:butt;stroke-linejoin:miter;stroke:#000000;stroke-opacity:1;stroke-miterlimit:4;" d="M 81.978453 0.000349695 C 90.495921 0.000349695 97.408257 6.907281 97.408257 15.430154 C 97.408257 23.953027 90.495921 30.859959 81.978453 30.859959 L 15.427625 30.859959 C 6.910157 30.859959 -0.00217899 23.953027 -0.00217899 15.430154 C -0.00217899 6.907281 6.910157 0.000349695 15.427625 0.000349695 Z M 81.978453 0.000349695 " transform="matrix(0.722779,0,0,0.722779,2.146106,3.316153)"/></g></g><g clip-rule="nonzero" clip-path="url(#dddb48723f)"><g clip-rule="nonzero" clip-path="url(#a9bf0e6320)"><path style=" stroke:none;fill-rule:nonzero;fill:#000000;fill-opacity:1;" d="M 35.335938 3.316406 L 72.875 3.316406 L 72.875 25.714844 L 35.335938 25.714844 Z M 35.335938 3.316406 "/></g></g><g style="fill:#000000;fill-opacity:1;"><g transform="translate(10.397011, 17.759917)"><path style="stroke:none" d="M 1.90625 0 L 0.609375 0 L 0.609375 -6.859375 L 2.0625 -6.859375 L 4.890625 -1.953125 L 4.890625 -6.859375 L 6.1875 -6.859375 L 6.1875 0 L 4.71875 0 L 1.90625 -4.921875 Z M 1.90625 0 "/></g></g><g style="fill:#000000;fill-opacity:1;"><g transform="translate(17.192836, 17.759917)"><path style="stroke:none" d="M 2.921875 0.09375 C 2.398438 0.09375 1.945312 -0.015625 1.5625 -0.234375 C 1.175781 -0.460938 0.875 -0.769531 0.65625 -1.15625 C 0.445312 -1.550781 0.34375 -2 0.34375 -2.5 C 0.34375 -2.820312 0.390625 -3.140625 0.484375 -3.453125 C 0.585938 -3.773438 0.742188 -4.0625 0.953125 -4.3125 C 1.171875 -4.570312 1.4375 -4.773438 1.75 -4.921875 C 2.070312 -5.078125 2.445312 -5.15625 2.875 -5.15625 C 3.195312 -5.15625 3.507812 -5.101562 3.8125 -5 C 4.125 -4.894531 4.398438 -4.738281 4.640625 -4.53125 C 4.878906 -4.320312 5.066406 -4.050781 5.203125 -3.71875 C 5.347656 -3.382812 5.421875 -2.988281 5.421875 -2.53125 L 5.421875 -2.28125 L 1.609375 -2.28125 C 1.617188 -2.164062 1.640625 -2.054688 1.671875 -1.953125 C 1.710938 -1.847656 1.753906 -1.757812 1.796875 -1.6875 C 1.910156 -1.445312 2.066406 -1.257812 2.265625 -1.125 C 2.472656 -1 2.707031 -0.9375 2.96875 -0.9375 C 3.25 -0.9375 3.488281 -1.007812 3.6875 -1.15625 C 3.882812 -1.3125 4.019531 -1.492188 4.09375 -1.703125 L 5.34375 -1.703125 C 5.238281 -1.378906 5.082031 -1.078125 4.875 -0.796875 C 4.664062 -0.523438 4.398438 -0.304688 4.078125 -0.140625 C 3.753906 0.015625 3.367188 0.09375 2.921875 0.09375 Z M 1.65625 -3.1875 L 4.171875 -3.1875 C 4.171875 -3.25 4.15625 -3.320312 4.125 -3.40625 C 4.101562 -3.488281 4.054688 -3.570312 3.984375 -3.65625 C 3.867188 -3.832031 3.71875 -3.960938 3.53125 -4.046875 C 3.34375 -4.140625 3.140625 -4.1875 2.921875 -4.1875 C 2.691406 -4.1875 2.484375 -4.140625 2.296875 -4.046875 C 2.117188 -3.960938 1.972656 -3.832031 1.859375 -3.65625 C 1.785156 -3.570312 1.734375 -3.488281 1.703125 -3.40625 C 1.679688 -3.320312 1.664062 -3.25 1.65625 -3.1875 Z M 1.65625 -3.1875 "/></g></g><g style="fill:#000000;fill-opacity:1;"><g transform="translate(22.953534, 17.759917)"><path style="stroke:none" d="M 2.828125 0 L 1.671875 0 L 0.140625 -5.046875 L 1.4375 -5.046875 L 2.296875 -1.765625 L 3.265625 -5.046875 L 4.3125 -5.046875 L 5.28125 -1.796875 L 6.171875 -5.046875 L 7.453125 -5.046875 L 5.890625 0 L 4.75 0 L 3.796875 -3.40625 Z M 2.828125 0 "/></g></g><g style="fill:#ffffff;fill-opacity:1;"><g transform="translate(44.30215, 18.024716)"><path style="stroke:none" d="M 2.6875 -6.421875 C 3.269531 -6.421875 3.75 -6.347656 4.125 -6.203125 C 4.5 -6.066406 4.78125 -5.859375 4.96875 -5.578125 C 5.15625 -5.296875 5.25 -4.9375 5.25 -4.5 C 5.25 -4.207031 5.191406 -3.953125 5.078125 -3.734375 C 4.960938 -3.515625 4.816406 -3.328125 4.640625 -3.171875 C 4.460938 -3.015625 4.265625 -2.890625 4.046875 -2.796875 L 5.9375 0 L 4.4375 0 L 2.890625 -2.46875 L 2.171875 -2.46875 L 2.171875 0 L 0.8125 0 L 0.8125 -6.421875 Z M 2.578125 -5.3125 L 2.171875 -5.3125 L 2.171875 -3.578125 L 2.609375 -3.578125 C 3.054688 -3.578125 3.378906 -3.648438 3.578125 -3.796875 C 3.773438 -3.953125 3.875 -4.175781 3.875 -4.46875 C 3.875 -4.769531 3.769531 -4.984375 3.5625 -5.109375 C 3.351562 -5.242188 3.023438 -5.3125 2.578125 -5.3125 Z M 2.578125 -5.3125 "/></g></g><g style="fill:#ffffff;fill-opacity:1;"><g transform="translate(50.244279, 18.024716)"><path style="stroke:none" d="M 5.171875 -2.46875 C 5.171875 -2.050781 5.113281 -1.6875 5 -1.375 C 4.894531 -1.0625 4.734375 -0.796875 4.515625 -0.578125 C 4.304688 -0.359375 4.054688 -0.191406 3.765625 -0.078125 C 3.472656 0.0351562 3.140625 0.09375 2.765625 0.09375 C 2.421875 0.09375 2.101562 0.0351562 1.8125 -0.078125 C 1.53125 -0.191406 1.28125 -0.359375 1.0625 -0.578125 C 0.851562 -0.796875 0.691406 -1.0625 0.578125 -1.375 C 0.460938 -1.6875 0.40625 -2.050781 0.40625 -2.46875 C 0.40625 -3.007812 0.5 -3.46875 0.6875 -3.84375 C 0.882812 -4.226562 1.160156 -4.515625 1.515625 -4.703125 C 1.878906 -4.898438 2.304688 -5 2.796875 -5 C 3.253906 -5 3.660156 -4.898438 4.015625 -4.703125 C 4.378906 -4.515625 4.660156 -4.226562 4.859375 -3.84375 C 5.066406 -3.46875 5.171875 -3.007812 5.171875 -2.46875 Z M 1.765625 -2.46875 C 1.765625 -2.144531 1.800781 -1.875 1.875 -1.65625 C 1.945312 -1.4375 2.054688 -1.269531 2.203125 -1.15625 C 2.359375 -1.039062 2.554688 -0.984375 2.796875 -0.984375 C 3.023438 -0.984375 3.210938 -1.039062 3.359375 -1.15625 C 3.515625 -1.269531 3.625 -1.4375 3.6875 -1.65625 C 3.757812 -1.875 3.796875 -2.144531 3.796875 -2.46875 C 3.796875 -2.789062 3.757812 -3.054688 3.6875 -3.265625 C 3.625 -3.484375 3.515625 -3.644531 3.359375 -3.75 C 3.210938 -3.863281 3.019531 -3.921875 2.78125 -3.921875 C 2.425781 -3.921875 2.164062 -3.796875 2 -3.546875 C 1.84375 -3.304688 1.765625 -2.945312 1.765625 -2.46875 Z M 1.765625 -2.46875 "/></g></g><g style="fill:#ffffff;fill-opacity:1;"><g transform="translate(55.817223, 18.024716)"><path style="stroke:none" d="M 2.046875 0 L 0.703125 0 L 0.703125 -6.84375 L 2.046875 -6.84375 Z M 2.046875 0 "/></g></g><g style="fill:#ffffff;fill-opacity:1;"><g transform="translate(58.56414, 18.024716)"><path style="stroke:none" d="M 2.734375 -5 C 3.179688 -5 3.566406 -4.910156 3.890625 -4.734375 C 4.222656 -4.566406 4.476562 -4.316406 4.65625 -3.984375 C 4.84375 -3.648438 4.9375 -3.242188 4.9375 -2.765625 L 4.9375 -2.125 L 1.765625 -2.125 C 1.773438 -1.75 1.882812 -1.453125 2.09375 -1.234375 C 2.3125 -1.015625 2.609375 -0.90625 2.984375 -0.90625 C 3.296875 -0.90625 3.582031 -0.9375 3.84375 -1 C 4.101562 -1.070312 4.375 -1.171875 4.65625 -1.296875 L 4.65625 -0.265625 C 4.414062 -0.140625 4.160156 -0.0507812 3.890625 0 C 3.628906 0.0625 3.304688 0.09375 2.921875 0.09375 C 2.429688 0.09375 1.992188 0.00390625 1.609375 -0.171875 C 1.234375 -0.359375 0.9375 -0.640625 0.71875 -1.015625 C 0.507812 -1.390625 0.40625 -1.859375 0.40625 -2.421875 C 0.40625 -2.992188 0.5 -3.472656 0.6875 -3.859375 C 0.882812 -4.242188 1.15625 -4.53125 1.5 -4.71875 C 1.851562 -4.90625 2.265625 -5 2.734375 -5 Z M 2.734375 -4.046875 C 2.472656 -4.046875 2.253906 -3.960938 2.078125 -3.796875 C 1.910156 -3.628906 1.816406 -3.367188 1.796875 -3.015625 L 3.671875 -3.015625 C 3.671875 -3.210938 3.632812 -3.390625 3.5625 -3.546875 C 3.5 -3.703125 3.394531 -3.820312 3.25 -3.90625 C 3.113281 -4 2.941406 -4.046875 2.734375 -4.046875 Z M 2.734375 -4.046875 "/></g></g><g clip-rule="nonzero" clip-path="url(#1cc599b88f)"><g clip-rule="nonzero" clip-path="url(#a60922d544)"><path style="fill:none;stroke-width:1.6;stroke-linecap:butt;stroke-linejoin:miter;stroke:#000000;stroke-opacity:1;stroke-miterlimit:4;" d="M 81.975839 -0.00177443 C 90.498711 -0.00177443 97.405643 6.910562 97.405643 15.42803 C 97.405643 23.950903 90.498711 30.857834 81.975839 30.857834 L 15.430416 30.857834 C 6.907543 30.857834 0.000611528 23.950903 0.000611528 15.42803 C 0.000611528 6.910562 6.907543 -0.00177443 15.430416 -0.00177443 Z M 81.975839 -0.00177443 " transform="matrix(-0.722779,0,0,-0.722779,72.844192,25.713561)"/></g></g></g></svg>